<svg xmlns="http://www.w3.org/2000/svg" viewBox="170 528 785 213" fill="#e8e6d3" role="img" aria-labelledby="title desc">
<title id="title">Strelva</title><desc id="desc">Custom vector lettering redrawn from the selected atmospheric reference. Not a font identification.</desc>
<!-- Seven independently editable letter outlines, drawn against the supplied reference. -->
<path d="M326 560C307 546 284 537 259 537C220 537 194 561 194 591C194 620 218 632 252 645C282 657 299 667 299 686C299 705 281 717 258 717C230 717 210 699 193 673L178 685C188 715 220 732 255 732C301 732 333 709 333 675C333 646 310 632 274 618C241 605 215 596 215 576C215 558 233 546 252 546C271 546 290 563 308 584Z"/>
<path d="M362 598V582C364 572 376 561 391 556V598H423V609H391V692C391 710 400 718 425 713V724C414 729 404 732 393 732C372 732 362 719 362 697V609H340V598Z"/>
<path d="M451 594H479V620C492 594 511 587 529 594L523 622C505 610 490 612 479 634V728H451Z"/>
<path fill-rule="evenodd" d="M557 658C558 691 576 712 603 712C622 712 637 700 649 681L653 684C643 715 622 733 594 733C554 733 529 705 529 663C529 621 556 592 593 592C623 592 641 610 650 634ZM556 650L621 628C615 610 606 600 592 600C572 600 558 619 556 650Z"/>
<path d="M670 537H694V728H670Z"/>
<path d="M714 594H744L782 696L817 594H827L779 731H768Z"/>
<path fill-rule="evenodd" d="M848 606C866 596 882 592 899 592C929 592 942 607 942 635V729H916V707C902 724 889 732 872 732C846 732 831 716 831 695C831 670 849 657 879 648L916 636V629C916 610 909 600 895 600C880 600 862 612 845 627ZM916 646L890 656C869 664 858 676 858 692C858 706 867 714 881 714C895 714 906 706 916 695Z"/>
</svg>
